<?xml version="1.0" standalone="no"?>
<!DOCTYPE svg PUBLIC "-//W3C//DTD SVG 20010904//EN"
 "http://www.w3.org/TR/2001/REC-SVG-20010904/DTD/svg10.dtd">
<svg version="1.0" xmlns="http://www.w3.org/2000/svg"
 width="800.000000pt" height="800.000000pt" viewBox="0 0 800.000000 800.000000"
 preserveAspectRatio="xMidYMid meet">

<g transform="translate(0.000000,800.000000) scale(0.100000,-0.100000)"
fill="#000000" stroke="none">
<path d="M0 4000 l0 -4000 4000 0 4000 0 0 4000 0 4000 -4000 0 -4000 0 0
-4000z m1582 3298 c-7 -7 -12 -8 -12 -2 0 14 12 26 19 19 2 -3 -1 -11 -7 -17z
m-145 -374 c-3 -3 -12 -4 -19 -1 -8 3 -5 6 6 6 11 1 17 -2 13 -5z m13 -189 c0
-8 -4 -15 -10 -15 -5 0 -10 7 -10 15 0 8 5 15 10 15 6 0 10 -7 10 -15z m80 -5
c0 -11 -4 -20 -10 -20 -5 0 -10 9 -10 20 0 11 5 20 10 20 6 0 10 -9 10 -20z
m567 -107 c-3 -10 -5 -4 -5 12 0 17 2 24 5 18 2 -7 2 -21 0 -30z m63 11 c0
-21 -17 -25 -22 -6 -3 11 0 19 8 19 8 0 14 -6 14 -13z m-430 -214 c0 -11 -4
-20 -10 -20 -5 0 -10 2 -10 4 0 2 -3 11 -6 20 -4 11 -1 16 10 16 9 0 16 -8 16
-20z m-482 -651 c47 -35 53 -49 19 -49 -13 0 -28 -5 -34 -11 -9 -9 -19 -9 -42
1 -17 7 -42 10 -56 8 -14 -3 -25 -1 -25 4 0 5 -9 4 -21 -3 -12 -6 -30 -9 -40
-6 -10 3 -17 1 -13 -4 3 -5 -2 -9 -10 -9 -22 0 -66 -40 -78 -70 -6 -14 -16
-47 -23 -75 -7 -27 -13 -40 -14 -29 -2 43 39 153 64 172 14 11 25 24 25 30 0
6 24 24 53 40 73 43 137 44 195 1z m-1 -141 c-3 -8 -6 -5 -6 6 -1 11 2 17 5
13 3 -3 4 -12 1 -19z m107 -207 c3 -5 -1 -11 -9 -14 -9 -4 -12 -1 -8 9 6 16
10 17 17 5z m1046 -72 c0 -5 -20 -9 -45 -9 -52 0 -61 17 -12 22 37 4 57 -1 57
-13z m-554 -23 c7 -8 18 -16 24 -18 6 -2 12 -17 14 -33 2 -17 5 -30 6 -30 1 0
3 -40 5 -90 3 -78 6 -92 26 -108 12 -9 19 -20 16 -24 -9 -9 13 -44 24 -38 5 4
14 3 21 -1 7 -5 5 -11 -7 -21 -17 -12 -16 -13 11 -13 20 0 39 -9 54 -25 13
-14 29 -25 37 -25 7 0 19 -15 27 -34 8 -19 23 -43 33 -53 29 -29 32 -45 21
-97 -9 -41 -7 -52 16 -97 24 -49 26 -93 3 -70 -16 16 -24 13 -30 -10 -3 -12 1
-32 9 -45 17 -25 10 -68 -9 -61 -7 2 -14 14 -15 28 -5 34 -14 40 -47 30 -17
-5 -22 -10 -12 -10 9 -1 17 -4 17 -9 0 -4 -20 -6 -45 -4 -39 4 -45 7 -45 27 0
13 6 26 13 29 7 3 6 5 -4 3 -20 -3 -77 45 -71 61 2 8 -8 12 -32 12 -25 0 -36
4 -36 15 0 10 -10 15 -30 15 -16 0 -30 4 -30 10 0 5 -10 18 -22 29 -18 18 -19
22 -7 38 12 15 12 16 -4 10 -10 -4 -16 -3 -12 2 3 5 -3 23 -12 40 -16 27 -16
33 -3 41 8 5 11 12 7 17 -4 4 -16 2 -26 -4 -15 -10 -17 -7 -13 19 3 17 -1 33
-7 37 -9 6 -9 21 0 60 8 39 8 60 0 78 -6 13 -11 40 -11 59 0 27 -5 36 -23 43
-22 9 -33 40 -15 42 4 1 13 2 20 3 25 2 19 26 -6 26 -14 0 -26 5 -26 10 0 6
23 10 50 10 47 0 50 2 50 26 0 14 4 23 9 19 5 -3 12 4 16 15 3 11 11 20 16 20
5 0 9 11 9 23 0 38 20 48 46 23z m75 -19 c-10 -9 -11 -8 -5 6 3 10 9 15 12 12
3 -3 0 -11 -7 -18z m-312 -148 c-15 -9 -32 -2 -24 11 3 5 13 6 21 3 12 -4 13
-8 3 -14z m16 -71 c-10 -33 -55 -65 -55 -39 0 29 21 61 40 61 17 0 20 -4 15
-22z m-22 -68 c-3 -12 -8 -19 -11 -16 -5 6 5 36 12 36 2 0 2 -9 -1 -20z m-553
-113 c0 -18 7 -43 16 -55 9 -13 14 -26 11 -29 -6 -5 -57 90 -57 107 0 5 7 10
15 10 10 0 15 -10 15 -33z m275 -209 c3 -2 10 -63 15 -134 6 -71 15 -157 21
-192 8 -44 8 -66 1 -75 -6 -7 -13 -77 -16 -155 -5 -135 -4 -142 14 -142 17 0
18 -5 13 -50 -5 -42 -3 -50 11 -50 9 0 16 -4 16 -10 0 -5 5 -10 10 -10 6 0 10
9 10 20 0 11 5 20 11 20 7 0 8 -7 4 -17 -12 -31 -13 -48 -1 -62 7 -9 10 -49 9
-105 -4 -138 3 -175 35 -188 15 -6 31 -10 35 -9 5 1 20 -8 34 -19 14 -11 32
-20 39 -20 8 0 14 -9 14 -20 0 -11 -5 -20 -10 -20 -6 0 -17 -14 -24 -31 -12
-28 -11 -33 10 -57 13 -13 24 -35 24 -47 0 -24 17 -35 53 -35 12 0 29 -5 37
-11 13 -9 12 -10 -3 -5 -15 5 -16 3 -7 -14 8 -16 21 -20 58 -20 27 0 53 -5 59
-11 6 -6 33 -9 60 -8 60 5 78 -10 82 -66 1 -24 10 -46 21 -55 11 -10 23 -41
30 -87 12 -66 11 -73 -6 -95 -10 -12 -26 -23 -34 -23 -11 0 -14 -11 -11 -47 2
-43 0 -48 -18 -48 -15 0 -21 -6 -21 -22 0 -24 -20 -63 -20 -40 0 6 -4 12 -10
12 -5 0 -10 -7 -10 -15 0 -8 -3 -14 -7 -13 -5 0 -15 -2 -23 -5 -8 -4 -27 -11
-42 -16 -30 -11 -34 -22 -18 -52 7 -12 7 -19 1 -19 -6 0 -8 -7 -5 -15 4 -8 2
-15 -4 -15 -5 0 -12 -14 -16 -32 -3 -17 -13 -39 -22 -49 -13 -14 -13 -17 0
-22 18 -7 9 -47 -10 -47 -8 0 -20 -11 -26 -25 -15 -34 -48 -32 -73 4 -10 16
-22 29 -25 29 -16 -3 -79 15 -75 22 3 4 -4 10 -15 13 -11 3 -20 12 -20 20 0
23 -77 45 -183 53 -91 6 -99 8 -121 35 -14 16 -27 29 -30 29 -10 0 -46 40 -46
50 0 6 -6 13 -14 16 -19 7 -41 67 -26 72 17 6 11 20 -10 27 -12 4 -20 15 -20
29 0 13 -6 29 -14 35 -8 7 -18 26 -21 42 -4 16 -13 29 -20 29 -36 0 -53 175
-30 293 10 45 21 87 25 92 4 6 16 48 25 95 9 47 20 92 25 101 4 8 15 51 25 95
9 43 20 88 25 99 14 32 19 56 31 140 15 111 16 115 27 176 6 30 16 95 23 144
6 50 15 95 19 100 8 10 15 90 26 305 3 69 10 128 16 131 11 7 106 5 113 -3z
m575 -122 c0 -11 -19 -15 -25 -6 -3 5 1 10 9 10 9 0 16 -2 16 -4z m2263 -64
c15 -14 27 -32 27 -39 0 -18 -7 -16 -30 7 -11 11 -28 20 -37 20 -10 0 -14 -4
-8 -8 27 -19 49 -92 24 -76 -19 11 -1 -45 21 -69 32 -33 46 -10 30 48 -7 25
-11 48 -8 51 3 2 11 -17 18 -43 7 -26 17 -53 22 -60 12 -15 -26 -36 -51 -28
-10 3 -37 44 -61 92 -24 48 -46 80 -48 72 -3 -8 -8 -19 -13 -24 -4 -6 3 -35
18 -65 14 -30 28 -73 31 -96 4 -37 2 -43 -18 -49 -30 -9 -66 11 -80 46 -7 15
-23 43 -37 61 l-24 33 7 -30 c3 -16 15 -39 25 -51 11 -11 19 -24 19 -28 0 -4
10 -20 22 -36 29 -39 78 -42 102 -5 18 27 22 75 6 75 -5 0 -10 7 -10 15 0 24
13 17 38 -21 17 -27 28 -34 42 -29 29 9 24 -9 -10 -43 -16 -17 -30 -38 -30
-46 0 -9 -5 -16 -11 -16 -6 0 -8 -8 -5 -17 2 -10 8 -38 11 -63 6 -42 6 -44 -8
-25 -13 16 -18 18 -29 7 -11 -11 -9 -16 12 -32 22 -17 26 -18 37 -4 6 9 9 30
6 50 -6 34 -5 34 26 28 35 -7 41 8 15 37 -13 14 -13 21 -3 40 11 21 13 21 24
6 15 -21 25 -22 25 -2 0 10 10 15 30 15 17 0 33 1 36 3 4 1 17 -22 30 -50 27
-63 19 -69 -16 -12 -25 40 -25 40 -42 20 -9 -12 -21 -21 -27 -21 -6 0 -11 -9
-11 -20 0 -11 -7 -23 -15 -26 -8 -4 -15 -12 -15 -19 0 -7 -4 -15 -9 -17 -11
-4 -2 -58 9 -58 4 0 13 15 21 33 21 52 51 89 61 75 4 -7 8 -16 8 -20 0 -15
-85 -96 -104 -99 -29 -6 -30 -24 -1 -37 22 -10 25 -18 25 -61 0 -27 5 -53 10
-56 7 -4 9 2 5 18 -4 15 -1 30 9 40 14 14 14 18 -2 47 -16 31 -16 32 2 43 11
7 30 22 42 35 30 31 46 28 71 -17 l23 -40 -25 -29 c-14 -17 -25 -37 -25 -47 0
-9 -4 -14 -9 -10 -5 3 -13 0 -17 -7 -5 -7 -10 -4 -16 11 -7 20 -10 21 -24 10
-12 -10 -15 -27 -12 -71 3 -43 1 -58 -9 -58 -7 0 -13 -4 -13 -9 0 -15 31 -42
41 -36 5 4 9 2 9 -4 0 -6 -9 -15 -19 -20 -10 -6 -23 -27 -28 -48 -4 -20 -13
-38 -18 -39 -10 -4 -45 63 -45 85 0 8 -7 10 -20 6 -14 -4 -20 -2 -20 8 0 8 -9
26 -21 41 -22 27 -18 46 9 46 10 0 13 3 6 10 -12 12 -84 -9 -91 -27 -3 -7 -11
-13 -18 -13 -24 0 -24 -14 1 -45 l25 -30 -6 27 c-5 20 -2 29 13 37 29 16 29
15 53 -31 21 -40 21 -42 3 -56 -11 -7 -18 -19 -16 -25 2 -7 -9 2 -23 18 l-25
30 6 -26 c5 -24 2 -27 -27 -31 -39 -6 -54 6 -73 59 -33 91 -57 133 -76 133
-23 0 -35 16 -18 26 6 4 14 2 16 -4 2 -6 9 -9 15 -6 7 2 32 1 56 -4 53 -9 68
-32 22 -32 -42 0 -41 -37 2 -53 12 -5 17 -1 17 12 0 10 10 25 23 34 17 12 20
19 11 33 -10 17 -63 40 -114 50 -14 3 -29 9 -35 15 -9 9 -8 10 30 13 14 1 20
9 22 26 2 42 3 43 16 32 6 -6 30 -13 52 -17 22 -4 45 -11 50 -14 6 -4 22 -12
37 -19 25 -10 30 -9 44 13 19 29 12 75 -11 75 -8 0 -15 6 -15 13 -1 7 -6 5
-14 -5 -17 -23 -31 -22 -91 7 -27 14 -58 25 -67 25 -10 0 -18 6 -18 13 0 9 -2
9 -8 0 -6 -9 -13 -7 -26 8 -9 12 -19 19 -22 16 -7 -7 7 -37 17 -37 16 0 10
-26 -11 -45 -16 -15 -22 -15 -35 -5 -8 7 -15 18 -15 25 0 14 -48 58 -74 68
-17 7 -15 11 19 44 41 40 37 41 79 -22 12 -18 13 -17 8 14 -3 24 -1 32 7 27 6
-4 11 -14 11 -21 0 -25 31 -53 52 -47 11 3 23 0 27 -6 4 -7 28 -15 54 -18 43
-6 47 -5 47 15 0 13 -10 26 -25 33 -14 6 -25 15 -25 20 0 5 -9 4 -21 -2 -19
-11 -20 -10 -10 9 6 11 16 23 21 26 17 11 11 73 -8 92 -11 10 -22 26 -25 36
-4 9 -14 17 -24 16 -10 0 -13 -3 -6 -6 19 -7 54 -93 47 -115 -6 -21 -37 -40
-56 -34 -7 2 -25 7 -40 10 -33 7 -57 53 -59 110 -2 29 -3 33 -6 14 -4 -24 -8
-27 -33 -21 -22 4 -31 1 -36 -11 -4 -10 -2 -22 5 -29 8 -8 11 -7 11 6 0 9 7
17 15 17 8 0 15 -4 15 -9 0 -5 3 -17 7 -27 5 -14 2 -16 -14 -12 -16 4 -19 1
-16 -16 4 -17 -4 -25 -31 -39 -20 -9 -36 -12 -36 -7 0 6 -7 10 -15 10 -21 0
-19 -16 6 -34 l21 -14 -27 -18 c-31 -20 -45 -8 -37 32 4 20 -1 26 -27 35 -17
6 -31 17 -31 25 0 8 -10 14 -25 14 -15 0 -25 -6 -25 -14 0 -25 -33 -29 -51 -5
-11 15 -18 18 -24 10 -4 -7 -4 -15 -1 -18 7 -7 -23 -43 -36 -43 -4 0 -8 7 -8
15 0 8 -4 15 -10 15 -14 0 -12 -23 5 -56 10 -20 15 -23 15 -11 0 18 15 23 24
8 3 -4 17 -6 31 -3 21 4 25 1 25 -20 0 -14 8 -36 19 -49 10 -13 16 -30 14 -36
-6 -17 -43 -17 -43 0 0 7 -7 22 -16 33 -15 19 -15 18 -11 -3 6 -28 -3 -29 -26
-3 -18 22 -37 26 -37 9 0 -20 35 -56 50 -52 10 3 11 1 4 -4 -19 -14 -23 -41
-11 -67 7 -14 15 -26 20 -26 17 0 5 -20 -23 -34 -16 -9 -43 -23 -60 -32 -29
-15 -35 -27 -30 -69 2 -19 1 -19 -22 3 -29 26 -35 27 -76 6 -37 -18 -36 -13
-17 -50 18 -38 23 -96 8 -101 -6 -2 -23 21 -38 51 -27 56 -38 63 -64 47 -9 -6
-11 -18 -6 -40 7 -32 6 -32 -13 -15 -11 9 -33 18 -47 20 -15 2 -28 4 -29 6
-19 34 -33 78 -26 78 6 0 10 5 10 10 0 6 -6 10 -14 10 -34 0 -82 109 -71 160
8 36 45 80 67 80 17 0 107 52 152 88 16 12 35 22 42 22 46 0 -13 74 -62 76
-16 1 -73 5 -127 9 -87 7 -100 11 -114 31 -22 35 -14 68 20 72 15 2 27 9 27
17 0 26 28 23 53 -6 23 -27 24 -33 5 -30 -5 0 -8 -4 -8 -9 0 -6 11 -10 25 -10
14 0 25 -4 25 -9 0 -5 8 -11 18 -15 9 -3 22 -9 29 -12 7 -3 22 6 34 20 17 19
26 23 40 16 10 -6 29 -10 44 -10 18 0 28 -7 35 -25 5 -14 16 -25 25 -25 8 0
15 -8 16 -17 0 -11 3 -13 6 -5 6 15 33 16 33 0 0 -9 3 -9 12 0 7 7 18 12 26
12 13 0 477 228 641 315 36 19 68 32 73 29 4 -3 8 0 8 6 0 17 41 1 73 -28z
m-2517 -64 c30 -10 43 -31 44 -65 0 -8 -13 -12 -37 -10 -32 2 -38 -1 -38 -18
0 -18 6 -20 52 -19 l52 2 6 -39 c4 -23 15 -43 26 -49 10 -6 16 -17 13 -25 -4
-8 -1 -15 5 -15 6 0 11 5 11 11 0 5 5 7 10 4 14 -9 12 -25 -3 -25 -14 0 -41
-79 -35 -107 5 -24 -30 -59 -45 -44 -6 6 -19 11 -30 11 -17 0 -50 56 -50 88 0
6 -6 12 -14 12 -9 0 -13 14 -13 45 0 32 -4 45 -14 45 -7 0 -20 7 -27 16 -11
13 -10 18 9 32 21 17 48 102 31 102 -10 0 -12 43 -2 53 9 9 11 9 49 -5z m2618
-124 c3 -8 2 -12 -4 -9 -6 3 -10 10 -10 16 0 14 7 11 14 -7z m-24 -50 c0 -8
-5 -12 -10 -9 -6 4 -8 11 -5 16 9 14 15 11 15 -7z m-2020 -150 c0 -21 -4 -33
-10 -29 -17 10 -11 65 7 65 2 0 3 -16 3 -36z m74 12 c-8 -27 -6 -25 -34 -28
-33 -4 -40 29 -9 40 38 14 50 11 43 -12z m1222 -7 c3 -6 15 -8 26 -6 17 5 19
2 14 -18 -3 -13 -2 -35 3 -48 17 -43 -1 -38 -30 8 -25 40 -32 45 -56 40 -26
-5 -26 -5 -5 4 12 6 22 15 22 21 0 13 17 13 26 -1z m1022 -31 c18 -15 15 -28
-8 -28 -14 0 -25 -11 -34 -31 -17 -40 -10 -74 19 -93 14 -9 22 -25 23 -45 0
-16 5 -39 11 -50 7 -13 8 -22 1 -26 -5 -3 -10 1 -10 10 0 8 -11 32 -24 53 -13
21 -27 52 -31 70 -7 35 -28 42 -45 15 -10 -16 -10 -15 -5 4 4 14 0 25 -11 31
-16 9 -15 13 5 55 12 25 30 48 39 50 21 5 52 -2 70 -15z m-2298 -29 c0 20 49
12 60 -9 6 -11 16 -18 21 -14 7 4 6 -2 -1 -16 -10 -19 -9 -22 9 -27 12 -3 21
-13 21 -22 0 -9 6 -28 14 -42 12 -23 11 -27 -6 -38 -14 -9 -17 -18 -12 -34 4
-12 8 -30 9 -39 2 -25 9 -30 52 -32 69 -5 73 -6 73 -21 0 -8 5 -15 10 -15 6 0
10 -9 10 -20 0 -15 7 -20 25 -20 23 0 25 -3 19 -27 -4 -16 -10 -31 -13 -35
-13 -14 -276 9 -315 27 -29 14 -41 15 -71 5 -20 -6 -43 -9 -53 -5 -9 3 -13 3
-9 -1 4 -4 -11 -15 -33 -25 -36 -16 -43 -17 -76 -3 l-36 15 20 22 c13 15 19
32 17 52 -4 34 9 55 36 55 11 0 19 5 19 10 0 6 -7 10 -15 10 -13 0 -19 19 -18
58 1 7 -10 15 -23 18 -38 10 -29 45 16 59 34 10 50 24 50 45 0 35 36 54 100
51 47 -2 61 1 66 14 5 12 9 13 20 4 10 -8 14 -8 14 0z m2160 -19 c0 -5 -4 -10
-10 -10 -5 0 -10 5 -10 10 0 6 5 10 10 10 6 0 10 -4 10 -10z m-500 -60 c-11
-11 -20 -24 -20 -30 0 -5 -7 -10 -15 -10 -23 0 -18 16 12 44 31 29 52 25 23
-4z m507 -82 c-3 -8 -6 -5 -6 6 -1 11 2 17 5 13 3 -3 4 -12 1 -19z m-887 -23
c-7 -8 -16 -15 -21 -15 -14 0 -11 38 4 43 20 7 31 -11 17 -28z m-805 15 c-3
-5 -12 -7 -20 -3 -21 7 -19 13 6 13 11 0 18 -4 14 -10z m1675 -21 c0 -6 -5
-20 -11 -31 -9 -17 -13 -18 -20 -7 -16 25 -10 49 11 49 11 0 20 -5 20 -11z
m94 -5 c3 -8 2 -12 -4 -9 -6 3 -10 10 -10 16 0 14 7 11 14 -7z m-37 -31 c4
-10 10 -21 15 -24 5 -3 2 -18 -6 -34 -22 -41 -11 -58 24 -40 57 30 60 27 74
-95 5 -37 4 -42 -6 -25 -39 68 -80 99 -147 110 -39 6 -58 25 -26 25 11 0 15
11 15 36 0 50 43 85 57 47z m-932 -80 c48 -97 53 -112 48 -132 -6 -24 11 -35
43 -27 29 8 33 41 4 49 -11 3 -20 13 -20 23 0 9 -6 25 -13 33 -15 18 -47 95
-47 113 0 7 5 5 13 -4 6 -9 21 -18 31 -20 13 -2 23 -15 28 -38 16 -63 48 -118
74 -123 28 -5 34 0 34 26 0 27 -22 87 -32 87 -4 0 -12 -8 -17 -17 -9 -16 -10
-16 -11 5 0 17 6 22 24 22 24 0 55 -32 69 -72 4 -10 15 -18 26 -18 13 0 21 -9
26 -30 4 -16 12 -33 18 -37 7 -5 18 -21 25 -36 10 -23 18 -28 40 -25 25 3 27
6 25 45 -1 22 -11 60 -22 84 -25 51 -26 63 -6 55 8 -3 15 -1 15 4 0 17 27 11
34 -7 9 -24 31 -62 45 -76 19 -19 12 -46 -14 -53 -14 -3 -25 -12 -25 -20 0
-23 37 -16 58 11 23 29 51 33 54 8 4 -46 22 -89 42 -96 9 -4 15 -17 14 -34 -1
-15 1 -45 5 -65 l8 -38 -47 25 c-26 14 -53 25 -59 25 -7 0 -15 9 -18 21 -5 20
-10 21 -89 14 -46 -4 -88 -11 -94 -16 -6 -5 -28 -11 -50 -15 -50 -8 -102 -35
-117 -61 -56 -97 -58 -103 -49 -151 5 -27 5 -57 1 -68 -4 -10 -8 -13 -8 -6 -1
8 -9 25 -20 38 -17 22 -19 22 -24 5 -9 -35 38 -115 68 -116 6 0 9 -8 7 -18 -2
-10 3 -17 13 -17 24 0 18 31 -12 62 l-28 29 38 -4 c20 -2 40 -7 44 -10 3 -4
15 -7 26 -7 24 0 87 -30 87 -41 0 -15 -22 -10 -37 9 -13 16 -13 15 -5 -3 11
-23 12 -26 12 -59 0 -14 7 -31 15 -40 8 -8 15 -21 15 -29 0 -20 103 -40 193
-37 37 1 67 -3 67 -8 0 -20 45 -27 138 -21 123 8 244 -5 293 -30 21 -11 67
-25 101 -31 37 -5 65 -16 70 -25 5 -8 18 -15 28 -15 10 0 21 -4 25 -9 3 -6 26
-13 51 -17 25 -3 48 -13 51 -20 4 -10 24 -14 68 -14 43 0 66 -5 75 -15 14 -16
67 -45 85 -45 14 0 77 -64 70 -71 -2 -3 -63 -4 -135 -2 -71 2 -130 1 -130 -2
0 -3 12 -10 26 -16 15 -5 24 -12 21 -16 -4 -3 -21 1 -39 10 -18 8 -50 23 -71
32 -21 10 -45 29 -54 41 -8 13 -19 22 -23 19 -4 -3 -13 2 -20 10 -7 8 -19 15
-28 15 -19 0 -85 -22 -92 -31 -10 -12 -52 -31 -57 -25 -8 8 7 26 23 26 8 0 14
7 14 15 0 8 5 15 10 15 6 0 10 8 10 18 0 14 -11 17 -67 20 -36 1 -71 7 -78 12
-13 11 -26 3 -42 -27 -19 -34 -16 -45 10 -38 21 6 21 6 -3 -14 l-25 -20 -5 20
c-6 25 -22 26 -30 3 -6 -15 -7 -15 -13 5 -3 15 -11 22 -20 18 -13 -5 -41 46
-30 57 9 9 33 -6 33 -21 0 -8 5 -11 10 -8 6 3 10 -1 10 -9 0 -21 10 -20 38 4
28 23 20 44 -14 36 -17 -5 -26 -2 -30 9 -4 8 -15 15 -25 15 -10 0 -19 5 -19
10 0 6 -7 10 -15 10 -8 0 -15 -4 -15 -10 0 -5 -9 -10 -20 -10 -11 0 -20 5 -20
10 0 6 7 10 15 10 17 0 20 25 5 35 -5 3 -10 3 -10 -2 0 -4 -14 -9 -31 -10 -18
-1 -33 -4 -36 -6 -8 -8 10 -37 23 -37 19 0 18 -16 -2 -24 -31 -12 -46 -7 -39
14 8 26 -11 60 -35 60 -16 0 -20 -7 -20 -35 0 -46 -11 -44 -34 5 -14 28 -27
42 -45 45 -14 3 -44 10 -66 16 -22 6 -49 10 -59 10 -10 0 -28 7 -40 15 -19 13
-116 21 -116 9 0 -16 31 -63 46 -69 13 -5 14 -9 4 -21 -21 -25 -44 -17 -65 21
-16 30 -23 35 -49 32 -27 -3 -31 1 -34 22 -2 22 4 30 42 48 51 26 56 35 56
103 0 62 -21 66 -47 9 -20 -45 -28 -49 -36 -19 -4 16 -10 19 -29 14 -28 -9
-48 -24 -48 -37 0 -5 9 -4 19 2 32 17 48 12 61 -19 13 -32 7 -51 -14 -51 -20
0 -42 -30 -29 -38 6 -4 13 -18 14 -32 3 -21 9 -25 35 -23 27 2 33 -1 39 -24 6
-26 3 -30 -37 -53 -18 -11 -15 -34 9 -58 7 -7 13 -20 13 -28 0 -8 9 -14 20
-14 23 0 40 -28 40 -64 0 -28 9 -33 27 -15 7 7 12 0 17 -25 4 -21 17 -43 34
-55 34 -26 11 -28 -44 -4 -22 9 -42 16 -47 15 -4 -1 -13 9 -19 23 -6 14 -15
25 -20 25 -4 0 -8 7 -8 15 0 7 -6 18 -13 22 -7 4 -21 29 -31 56 -10 26 -22 47
-27 47 -5 0 -9 7 -9 15 0 14 -29 71 -56 110 -8 11 -14 26 -14 33 0 8 -9 25
-20 39 -11 14 -20 37 -20 52 0 14 -7 35 -15 45 -19 25 -19 40 0 33 8 -4 17 -2
20 3 4 6 15 10 25 10 24 0 36 18 21 33 -6 6 -11 23 -11 38 0 26 -27 48 -39 32
-3 -5 -19 -14 -35 -21 -22 -10 -26 -16 -18 -24 8 -8 18 -9 36 -1 17 8 27 8 35
0 13 -13 15 -37 2 -37 -5 0 -22 -3 -38 -6 -29 -6 -31 -3 -67 69 -20 41 -36 77
-36 79 0 3 14 5 31 6 35 1 55 15 45 31 -10 15 -38 14 -63 -4 -19 -13 -22 -13
-34 1 -17 21 -34 51 -53 94 -9 19 -20 42 -26 50 -6 8 -15 27 -21 43 -6 15 -21
30 -36 33 -20 5 -23 11 -18 33 4 19 -4 47 -30 96 -19 38 -35 76 -34 85 0 9 4
6 9 -7 5 -13 13 -23 18 -23 4 0 16 -22 26 -50 10 -27 21 -50 25 -50 4 0 12
-13 18 -30 6 -16 19 -30 27 -30 13 0 15 4 6 19 -6 12 -6 22 -1 25 5 3 12 -5
15 -19 6 -24 26 -35 26 -14 0 6 8 8 19 4 16 -5 20 0 23 21 3 26 4 27 20 11 35
-36 38 -9 7 64 -12 27 -19 52 -15 56 3 3 15 -17 27 -45 21 -49 47 -71 69 -57
7 4 8 19 5 36 -7 31 5 38 25 14 13 -16 46 -20 53 -7 5 7 -54 137 -70 157 -15
17 -36 75 -30 81 12 12 46 -18 57 -51 6 -19 15 -35 19 -35 4 0 15 -21 24 -47
10 -27 26 -59 37 -73 16 -21 20 -22 25 -9 6 16 -68 184 -86 195 -5 3 -9 19 -9
35 0 46 21 32 55 -38z m1072 5 c-3 -7 -5 -2 -5 12 0 14 2 19 5 13 2 -7 2 -19
0 -25z m-243 -3 c-18 -14 -54 -20 -54 -10 0 7 64 33 69 28 3 -2 -4 -10 -15
-18z m-494 -90 c0 -9 7 -18 15 -21 17 -7 39 -69 30 -84 -13 -20 -45 -10 -56
18 -6 15 -17 40 -24 56 -8 16 -12 32 -9 37 9 15 44 10 44 -6z m-2393 -57 c-2
-13 -4 -3 -4 22 0 25 2 35 4 23 2 -13 2 -33 0 -45z m1973 11 c0 -18 -18 -9
-23 12 -4 16 -3 18 9 8 8 -6 14 -15 14 -20z m757 -6 c3 -10 14 -37 25 -61 11
-24 18 -46 15 -49 -9 -8 -27 7 -27 23 0 21 -15 17 -33 -8 l-16 -23 0 23 c-1
13 5 22 14 22 10 0 15 10 15 30 0 17 -4 30 -10 30 -5 0 -10 7 -10 15 0 21 19
19 27 -2z m-2692 -13 c3 -5 1 -10 -4 -10 -6 0 -11 5 -11 10 0 6 2 10 4 10 3 0
8 -4 11 -10z m2591 -39 c1 -21 -3 -28 -12 -24 -17 6 -18 53 -1 53 6 0 12 -13
13 -29z m64 15 c0 -15 -29 -30 -39 -20 -3 3 3 12 13 20 24 17 26 17 26 0z
m441 -23 c6 -21 16 -44 22 -51 17 -21 15 -56 -4 -76 -19 -19 -19 -18 -19 35 0
30 -7 67 -15 83 -17 33 -19 46 -6 46 5 0 15 -17 22 -37z m-387 -88 c4 -17 1
-31 -9 -42 -15 -14 -18 -14 -32 0 -15 14 -15 18 1 41 21 33 32 33 40 1z m166
-19 c63 -21 70 -28 70 -78 0 -27 -5 -40 -20 -48 -21 -11 -27 -2 -10 18 6 6 7
10 4 7 -4 -3 -13 0 -20 6 -9 7 -14 6 -20 -2 -4 -7 -2 -15 4 -17 25 -8 11 -29
-19 -30 -25 -1 -30 3 -26 18 3 10 -4 33 -16 52 -11 18 -23 44 -27 58 -5 14
-12 34 -16 45 -8 19 -7 19 16 4 14 -8 50 -24 80 -33z m-114 -42 c-10 -26 -23
-14 -18 17 4 26 6 29 14 15 5 -10 7 -24 4 -32z m-2016 -4 c0 -5 -2 -10 -4 -10
-3 0 -8 5 -11 10 -3 6 -1 10 4 10 6 0 11 -4 11 -10z m1730 0 c0 -5 -7 -7 -15
-4 -8 4 -15 8 -15 10 0 2 7 4 15 4 8 0 15 -4 15 -10z m170 0 c0 -5 -2 -10 -4
-10 -3 0 -8 5 -11 10 -3 6 -1 10 4 10 6 0 11 -4 11 -10z m-280 -20 c0 -11 -4
-20 -10 -20 -5 0 -10 9 -10 20 0 11 5 20 10 20 6 0 10 -9 10 -20z m780 10 c0
-5 -4 -10 -10 -10 -5 0 -10 5 -10 10 0 6 5 10 10 10 6 0 10 -4 10 -10z m-40
-31 c0 -3 -12 -11 -26 -17 l-25 -12 17 30 c13 21 20 26 26 17 4 -6 8 -15 8
-18z m-580 1 c8 -15 7 -21 -8 -29 -16 -9 -18 -6 -14 20 5 34 8 36 22 9z m170
10 c0 -6 -11 -10 -25 -10 -14 0 -25 4 -25 8 0 4 11 9 25 10 14 1 25 -3 25 -8z
m-421 -47 c1 -7 -3 -13 -9 -13 -5 0 -10 15 -9 33 0 27 2 29 9 12 5 -11 9 -26
9 -32z m56 37 c3 -5 1 -10 -4 -10 -6 0 -11 5 -11 10 0 6 2 10 4 10 3 0 8 -4
11 -10z m-101 -22 c25 -36 -20 -68 -52 -36 -26 26 -13 50 30 57 4 0 14 -9 22
-21z m253 16 c-3 -3 -12 -4 -19 -1 -8 3 -5 6 6 6 11 1 17 -2 13 -5z m83 -35
c0 -11 -4 -18 -10 -14 -5 3 -7 12 -3 20 7 21 13 19 13 -6z m80 1 c0 -13 -7
-20 -20 -20 -19 0 -27 20 -13 33 13 14 33 6 33 -13z m-263 -42 c-14 -18 -30
-28 -47 -28 -14 0 -31 -5 -38 -12 -9 -9 -15 -9 -24 0 -8 8 -17 8 -30 1 -29
-15 -33 -4 -9 22 14 15 42 26 83 34 87 16 89 15 65 -17z m-215 5 c22 -20 23
-33 3 -33 -12 0 -35 28 -35 44 0 11 13 6 32 -11z m328 -2 c15 -28 13 -30 -17
-22 -34 9 -44 41 -14 41 11 0 25 -9 31 -19z m321 -8 c-12 -8 -31 -13 -44 -11
-19 4 -18 6 13 20 41 18 61 12 31 -9z m229 22 c0 -2 -10 -10 -22 -16 -21 -11
-22 -11 -9 4 13 16 31 23 31 12z m-902 -69 c5 -37 -19 -31 -29 8 -6 22 -5 27
9 24 10 -2 18 -15 20 -32z m742 8 c0 -2 -9 0 -20 6 -11 6 -20 13 -20 16 0 2 9
0 20 -6 11 -6 20 -13 20 -16z m-601 -48 c14 -15 14 -18 -5 -36 -19 -20 -19
-20 -47 5 -38 36 -36 58 5 51 17 -2 38 -12 47 -20z m-99 -13 c0 -21 -3 -24
-12 -15 -18 18 -28 15 -28 -9 0 -25 -23 -20 -29 6 -4 21 23 45 51 45 13 0 18
-8 18 -27z m0 -54 c0 -11 -4 -17 -10 -14 -5 3 -10 13 -10 21 0 8 5 14 10 14 6
0 10 -9 10 -21z m50 0 c0 -6 -4 -7 -10 -4 -5 3 -10 11 -10 16 0 6 5 7 10 4 6
-3 10 -11 10 -16z m-1678 -134 c14 -6 13 -85 -2 -85 -14 0 -26 24 -29 58 -2
31 4 37 31 27z m-1652 -95 c0 -5 -5 -10 -11 -10 -5 0 -7 5 -4 10 3 6 8 10 11
10 2 0 4 -4 4 -10z m1620 -20 c0 -11 -4 -20 -10 -20 -5 0 -10 9 -10 20 0 11 5
20 10 20 6 0 10 -9 10 -20z m-1716 -47 c-16 -17 -15 -18 26 -25 23 -4 45 -9
47 -12 10 -10 -52 -76 -67 -72 -8 3 -45 8 -81 11 -59 6 -68 5 -77 -11 -10 -17
-11 -17 -17 -2 -12 30 15 59 88 93 83 38 107 44 81 18z m3617 -80 c6 -15 16
-31 22 -36 9 -7 9 -10 0 -14 -15 -6 -17 -32 -4 -52 8 -13 16 -12 53 4 24 11
47 25 51 32 4 7 15 13 22 13 20 0 19 -46 0 -54 -8 -3 -15 -13 -15 -22 0 -12 7
-15 24 -12 23 5 24 2 19 -23 -5 -24 -2 -28 23 -31 26 -3 27 -4 10 -20 -24 -24
-59 -4 -51 30 4 15 1 22 -9 22 -8 0 -16 -10 -18 -22 -5 -35 -34 -34 -46 2 -11
29 -37 49 -49 36 -3 -3 1 -14 10 -24 22 -24 21 -45 -3 -67 -19 -17 -19 -16
-17 25 1 30 -4 46 -16 55 -9 6 -14 15 -10 18 3 4 -1 24 -10 44 -9 21 -21 57
-26 81 -8 38 -7 42 10 42 12 0 24 -11 30 -27z m-244 -94 c30 -11 27 -21 -4
-13 -24 6 -43 42 -34 64 4 10 7 5 9 -13 2 -19 12 -31 29 -38z m174 -36 c5 -13
17 -23 28 -23 11 0 23 -9 26 -20 3 -11 12 -20 18 -20 6 0 3 -8 -6 -17 -12 -12
-20 -14 -25 -7 -4 6 -17 16 -28 22 -12 6 -24 25 -27 41 -5 22 -13 31 -35 35
-24 6 -28 12 -29 42 l-1 36 35 -33 c19 -19 39 -44 44 -56z m389 48 c0 -11 5
-23 10 -26 6 -3 10 -10 10 -16 0 -5 -4 -9 -10 -9 -5 0 -10 6 -10 14 0 7 -7 19
-15 26 -8 7 -12 16 -9 21 9 16 24 10 24 -10z m240 -26 c-7 -9 -15 -13 -17 -11
-6 6 20 36 26 30 2 -2 -2 -10 -9 -19z m-334 -32 c-3 -4 -13 2 -20 13 -11 14
-11 21 -3 26 13 8 35 -28 23 -39z m-366 7 c0 -5 -4 -10 -10 -10 -5 0 -10 5
-10 10 0 6 5 10 10 10 6 0 10 -4 10 -10z m495 -20 c3 -5 1 -10 -4 -10 -6 0
-11 5 -11 10 0 6 2 10 4 10 3 0 8 -4 11 -10z m305 -5 c0 -8 -4 -15 -10 -15 -5
0 -10 7 -10 15 0 8 5 15 10 15 6 0 10 -7 10 -15z m-410 -21 c0 -8 4 -14 10
-14 5 0 7 -7 4 -15 -5 -13 -11 -11 -30 10 -29 32 -31 45 -4 38 11 -3 20 -12
20 -19z m316 3 c1 -12 1 -13 -3 -2 -6 19 -17 19 -33 0 -7 -8 -21 -15 -31 -15
-21 0 -21 -1 -24 -43 -3 -36 30 -57 49 -31 7 9 19 15 27 12 8 -3 26 1 42 9 15
7 27 10 27 5 0 -4 -46 -30 -102 -56 -57 -27 -106 -54 -109 -59 -9 -13 -46 1
-69 26 -34 35 -39 9 -8 -35 26 -36 -6 -31 -38 6 -46 53 -43 24 7 -79 6 -11 -4
-4 -20 15 l-31 35 7 -35 c6 -32 5 -34 -10 -21 -9 7 -17 21 -17 30 0 13 -10 17
-42 17 -24 1 -45 -2 -48 -6 -10 -14 -92 -61 -97 -56 -3 2 4 15 16 27 12 13 21
27 21 32 0 5 7 23 15 40 8 18 15 52 17 77 3 37 6 45 23 45 16 0 20 -6 17 -32
-1 -18 2 -33 8 -33 9 0 14 14 11 33 -2 11 51 29 58 20 3 -4 17 -8 31 -8 20 0
26 6 28 28 2 16 -2 34 -8 42 -7 9 -8 15 0 20 5 3 10 -1 10 -9 0 -9 5 -16 10
-16 6 0 10 -8 10 -17 0 -16 2 -16 11 -3 8 12 9 9 5 -13 -4 -15 -4 -32 -1 -37
8 -13 35 -1 35 15 0 7 14 16 30 20 17 4 30 12 30 18 1 7 6 2 13 -11 13 -22 27
-20 27 4 0 7 4 23 9 36 7 19 16 23 52 23 34 0 44 -4 45 -18z m224 9 c0 -15
-81 -41 -102 -33 -9 4 -7 6 5 6 9 1 34 10 54 21 45 24 43 24 43 6z m-390 -27
c0 -5 -7 -9 -15 -9 -9 0 -12 6 -9 15 6 15 24 11 24 -6z m250 -29 c0 -5 -4 -10
-10 -10 -5 0 -10 5 -10 10 0 6 5 10 10 10 6 0 10 -4 10 -10z m-832 -121 c4
-24 3 -24 -12 -4 -19 24 -20 38 -3 33 6 -3 13 -15 15 -29z m52 -22 c0 -20 -25
1 -28 24 -2 23 -2 23 13 5 8 -11 15 -24 15 -29z m27 -79 c-3 -8 -6 -5 -6 6 -1
11 2 17 5 13 3 -3 4 -12 1 -19z m86 -23 c-3 -9 -8 -14 -10 -11 -3 3 -2 9 2 15
9 16 15 13 8 -4z m157 2 c0 -7 -13 -17 -29 -23 -25 -10 -28 -9 -24 7 4 16 17
23 46 28 4 0 7 -5 7 -12z m-156 -53 c4 -9 13 -14 21 -10 9 3 15 -1 15 -10 0
-11 -6 -15 -20 -11 -11 3 -20 1 -20 -4 0 -18 29 -20 60 -4 42 22 52 11 12 -12
-32 -18 -50 -43 -32 -43 6 0 10 -5 10 -12 0 -7 -7 -5 -18 5 -10 9 -42 29 -72
45 -71 38 -77 59 -18 65 24 2 46 4 49 5 4 1 10 -5 13 -14z m73 10 c-3 -3 -12
-4 -19 -1 -8 3 -5 6 6 6 11 1 17 -2 13 -5z m68 -24 c-28 -12 -37 -12 -30 0 3
6 16 10 28 9 21 0 21 -1 2 -9z m295 -44 c0 -2 -7 -6 -15 -10 -8 -3 -15 -1 -15
4 0 6 7 10 15 10 8 0 15 -2 15 -4z m-120 -51 c0 -12 -4 -14 -19 -5 -13 7 -22
7 -26 0 -3 -5 -11 -10 -18 -10 -18 0 26 29 46 30 9 0 17 -7 17 -15z m58 -2 c5
-18 -16 -16 -35 3 -15 14 -14 16 7 12 13 -1 25 -9 28 -15z m1036 -26 c25 -5
31 -21 17 -44 -10 -17 -10 -17 -11 2 -1 11 -8 0 -16 -25 -8 -25 -12 -57 -10
-71 3 -17 -2 -34 -15 -47 -24 -26 -24 -40 -1 -61 10 -9 21 -24 25 -33 3 -10
15 -18 25 -18 14 0 21 -9 26 -31 9 -46 7 -71 -4 -64 -16 10 -12 -18 6 -44 13
-18 18 -20 25 -10 6 10 9 3 9 -18 0 -18 -4 -33 -10 -33 -5 0 -10 -4 -10 -10 0
-5 6 -10 14 -10 9 0 16 -12 18 -27 2 -16 8 -27 13 -27 6 1 16 -7 23 -17 7 -11
22 -19 33 -19 11 0 18 -4 14 -9 -3 -6 8 -20 24 -32 17 -12 33 -35 36 -51 5
-19 21 -38 46 -55 21 -14 39 -30 39 -34 0 -5 9 -9 19 -9 35 0 51 -12 51 -36 0
-17 6 -24 20 -24 11 0 27 -11 36 -25 16 -25 16 -27 -4 -45 -13 -12 -18 -27
-15 -40 3 -12 1 -31 -5 -43 -5 -12 -13 -31 -16 -41 -5 -14 -10 -16 -17 -9 -8
8 -7 20 5 44 9 18 13 35 10 38 -4 3 -9 0 -11 -6 -3 -7 -18 -13 -35 -13 l-29 0
19 -27 c10 -16 22 -36 25 -46 9 -24 28 -17 44 14 13 25 16 21 14 -21 -1 -23 0
-24 9 -5 9 17 10 15 6 -11 -4 -27 -2 -31 13 -27 13 3 20 -4 28 -29 5 -19 7
-42 3 -53 -8 -23 -2 -47 10 -40 18 11 50 -74 50 -135 0 -19 7 -41 16 -51 10
-11 13 -25 9 -39 -6 -19 -12 -21 -39 -15 -17 4 -42 7 -56 6 -19 -1 -21 2 -12
11 7 7 12 23 12 36 0 21 -2 22 -15 12 -12 -10 -16 -8 -25 15 -5 14 -10 30 -10
34 0 11 -31 71 -36 71 -3 0 -2 -9 1 -20 3 -11 2 -20 -3 -20 -5 0 -14 21 -20
48 -22 96 -43 158 -62 184 -11 15 -20 31 -20 35 0 5 -13 20 -28 33 -16 14 -32
32 -38 40 -12 21 -92 84 -130 103 -45 23 -162 141 -170 171 -3 14 -10 26 -15
26 -4 0 -13 19 -19 43 -13 51 -40 107 -52 107 -5 0 -20 12 -33 26 l-25 27 -89
-13 c-49 -7 -100 -10 -114 -6 -14 3 -40 -1 -60 -9 -19 -8 -85 -19 -148 -25
-63 -7 -124 -17 -137 -23 -37 -18 -217 -13 -305 8 -66 16 -81 24 -103 53 -14
18 -23 36 -20 39 3 3 0 13 -6 21 -18 21 -35 51 -59 105 -12 26 -25 47 -28 47
-4 0 -31 -6 -61 -14 -30 -8 -77 -17 -105 -20 -44 -6 -54 -4 -84 18 -64 48 -88
115 -61 167 13 22 30 25 30 4 0 -9 6 -12 15 -9 9 4 17 -1 21 -12 14 -41 35
-84 46 -90 7 -5 8 -3 2 7 -5 8 -7 22 -6 32 2 10 -3 17 -13 17 -25 0 -16 54 10
58 33 5 65 24 58 35 -3 6 -1 7 5 3 6 -3 13 -2 17 4 12 19 24 -1 19 -29 -9 -44
10 -71 51 -71 31 0 35 3 35 25 0 14 3 25 8 25 4 0 16 -11 26 -25 20 -26 69
-35 82 -14 4 8 9 7 15 -2 8 -12 10 -12 18 0 5 7 13 11 19 7 6 -3 16 -1 24 6 7
7 35 24 61 38 34 18 50 22 55 13 5 -8 42 -11 116 -10 59 1 110 -2 113 -6 3 -5
17 -7 31 -6 15 2 32 0 39 -4 7 -4 20 -3 30 3 32 18 144 51 154 45 5 -4 9 -2 9
4 0 18 51 38 128 51 39 6 72 16 72 21 0 19 52 30 82 18 19 -8 32 -8 41 -1 21
18 119 22 191 9z m-1324 -67 c-11 -20 -40 -28 -40 -10 0 9 28 29 43 30 4 0 3
-9 -3 -20z m-170 -10 c0 -5 -4 -10 -10 -10 -5 0 -10 5 -10 10 0 6 5 10 10 10
6 0 10 -4 10 -10z m2160 -90 c0 -5 -4 -10 -10 -10 -5 0 -10 5 -10 10 0 6 5 10
10 10 6 0 10 -4 10 -10z m112 -122 c9 -7 19 -24 22 -38 6 -23 5 -23 -6 -6 -7
11 -21 28 -30 38 -20 20 -10 25 14 6z m-353 -1129 c17 -49 13 -57 -9 -21 -22
35 -25 52 -11 52 5 0 14 -14 20 -31z m1168 -275 c-3 -3 -12 -4 -19 -1 -8 3 -5
6 6 6 11 1 17 -2 13 -5z"/>
<path d="M1971 4624 c-16 -18 -15 -20 26 -28 19 -5 34 -3 38 4 16 25 -43 47
-64 24z"/>
<path d="M1422 3660 c0 -14 2 -19 5 -12 2 6 2 18 0 25 -3 6 -5 1 -5 -13z"/>
<path d="M1875 3110 c4 -6 11 -8 16 -5 14 9 11 15 -7 15 -8 0 -12 -5 -9 -10z"/>
<path d="M1710 3025 c0 -8 7 -15 15 -15 8 0 15 7 15 15 0 8 -7 15 -15 15 -8 0
-15 -7 -15 -15z"/>
<path d="M1740 2984 c0 -17 30 -52 39 -44 3 3 7 -5 9 -18 3 -20 8 -23 40 -20
32 3 37 6 34 26 -3 17 2 22 20 23 23 0 23 0 2 9 -12 4 -24 15 -27 24 -9 23
-117 23 -117 0z"/>
<path d="M1887 2926 c-7 -16 1 -26 20 -26 7 0 13 9 13 20 0 23 -25 27 -33 6z"/>
<path d="M4023 4393 c3 -10 10 -34 16 -53 l11 -35 -20 25 c-11 14 -23 35 -26
48 -3 12 -10 22 -15 22 -11 0 -11 0 3 -41 12 -34 57 -99 70 -99 12 0 20 41 10
53 -6 7 -16 31 -23 55 -6 23 -16 42 -22 42 -5 0 -7 -8 -4 -17z"/>
<path d="M3880 4335 c7 -9 15 -13 17 -11 7 7 -7 26 -19 26 -6 0 -6 -6 2 -15z"/>
<path d="M2970 4300 c0 -5 5 -10 10 -10 6 0 10 5 10 10 0 6 -4 10 -10 10 -5 0
-10 -4 -10 -10z"/>
<path d="M3856 4295 c4 -8 10 -15 15 -15 16 0 41 -49 34 -67 -6 -16 -10 -14
-32 12 -15 18 -23 23 -19 12 3 -10 6 -23 6 -28 0 -5 7 -9 15 -9 8 0 15 -5 15
-10 0 -7 6 -7 20 0 29 15 25 50 -9 88 -31 34 -54 43 -45 17z"/>
<path d="M3650 4186 c0 -9 5 -16 10 -16 6 0 10 4 10 9 0 6 -4 13 -10 16 -5 3
-10 -1 -10 -9z"/>
<path d="M3253 4075 c-7 -21 -2 -25 25 -18 12 3 22 12 22 19 0 19 -39 18 -47
-1z"/>
<path d="M3380 4076 c0 -9 5 -16 10 -16 6 0 10 4 10 9 0 6 -4 13 -10 16 -5 3
-10 -1 -10 -9z"/>
<path d="M3190 4040 c0 -5 7 -10 15 -10 8 0 15 5 15 10 0 6 -7 10 -15 10 -8 0
-15 -4 -15 -10z"/>
<path d="M4334 3985 c-7 -17 4 -37 17 -30 12 8 12 45 -1 45 -6 0 -13 -7 -16
-15z"/>
<path d="M3292 3922 c2 -10 13 -17 28 -18 40 -1 62 -15 57 -35 -3 -12 0 -19 9
-19 8 0 14 5 14 11 0 6 7 9 15 5 29 -11 14 19 -22 44 -44 30 -106 38 -101 12z"/>
<path d="M3320 3880 c0 -5 5 -21 10 -36 13 -32 36 -19 26 14 -7 21 -36 39 -36
22z"/>
<path d="M3266 3872 c-3 -6 3 -12 15 -15 12 -3 19 -1 16 6 -5 15 -24 20 -31 9z"/>
<path d="M3221 3837 c-10 -15 -11 -22 -2 -25 6 -2 18 -11 27 -19 12 -12 18
-13 27 -4 9 9 6 13 -11 18 -17 4 -22 11 -19 24 7 27 -7 31 -22 6z"/>
<path d="M3260 3835 c0 -8 2 -15 4 -15 2 0 12 -3 21 -7 15 -5 16 -3 6 15 -13
25 -31 29 -31 7z"/>
<path d="M3160 3770 c0 -23 10 -26 28 -8 18 18 15 28 -8 28 -13 0 -20 -7 -20
-20z"/>
<path d="M3120 3760 c0 -5 5 -10 11 -10 5 0 7 5 4 10 -3 6 -8 10 -11 10 -2 0
-4 -4 -4 -10z"/>
<path d="M1688 4313 c7 -3 16 -2 19 1 4 3 -2 6 -13 5 -11 0 -14 -3 -6 -6z"/>
<path d="M4510 3725 c0 -8 2 -15 4 -15 2 0 6 7 10 15 3 8 1 15 -4 15 -6 0 -10
-7 -10 -15z"/>
<path d="M3755 3613 l6 -38 -18 28 c-10 15 -21 27 -25 27 -17 0 -18 -23 -3
-47 28 -42 36 -83 20 -99 -17 -17 -32 -18 -38 -1 -3 6 -6 2 -6 -10 -1 -13 -7
-23 -16 -23 -8 0 -15 -4 -15 -10 0 -5 5 -10 10 -10 18 0 70 30 70 40 0 6 6 9
13 8 13 -3 14 26 2 55 -5 13 -3 16 8 11 11 -4 17 2 19 23 4 26 5 26 17 -14 8
-24 20 -43 28 -43 18 0 16 13 -6 42 -11 13 -23 40 -28 59 -6 20 -17 35 -27 37
-15 3 -16 -2 -11 -35z"/>
<path d="M3638 3597 c-32 -13 -47 -40 -19 -35 21 4 51 -19 51 -38 0 -8 4 -14
10 -14 10 0 3 27 -14 49 -7 10 -6 16 7 26 9 6 14 15 10 18 -8 8 -10 8 -45 -6z"/>
<path d="M3579 3564 c-3 -5 -4 -33 -4 -61 0 -29 -3 -53 -8 -53 -5 0 -6 -13 -2
-30 7 -31 -2 -39 -22 -19 -7 7 -9 3 -6 -15 6 -30 11 -31 39 -12 18 13 20 23
16 72 -3 41 -2 55 7 50 6 -4 11 -16 11 -27 0 -10 5 -19 10 -19 6 0 10 -9 10
-20 0 -11 5 -20 10 -20 15 0 13 11 -13 66 -13 27 -28 60 -34 73 -5 14 -12 21
-14 15z"/>
<path d="M3953 3543 c-15 -5 -17 -49 -4 -58 5 -3 12 -1 16 5 3 5 15 10 26 10
24 0 24 12 1 33 -20 18 -20 18 -39 10z"/>
<path d="M3520 3522 c0 -5 7 -17 16 -28 14 -17 15 -17 10 -1 -3 10 -6 23 -6
28 0 5 -4 9 -10 9 -5 0 -10 -4 -10 -8z"/>
<path d="M3463 3503 c-13 -5 -11 -25 8 -90 l10 -32 20 20 20 20 -21 45 c-12
24 -23 44 -23 43 -1 0 -8 -3 -14 -6z m37 -64 c0 -6 -4 -7 -10 -4 -5 3 -10 11
-10 16 0 6 5 7 10 4 6 -3 10 -11 10 -16z"/>
<path d="M3886 3503 c-3 -4 -6 -15 -6 -25 0 -13 7 -18 25 -18 14 0 25 6 25 13
0 14 -35 39 -44 30z"/>
<path d="M3373 3453 c-18 -9 -33 -21 -33 -26 0 -5 7 -4 15 3 8 6 19 9 25 5 9
-6 40 16 40 29 0 9 -12 6 -47 -11z"/>
<path d="M3410 3360 c0 -5 5 -10 10 -10 6 0 10 -9 10 -20 0 -11 5 -20 10 -20
13 0 13 3 -2 35 -11 25 -28 34 -28 15z"/>
<path d="M3491 3354 c0 -11 3 -14 6 -6 3 7 2 16 -1 19 -3 4 -6 -2 -5 -13z"/>
<path d="M3400 3156 c-41 -13 -49 -43 -10 -38 14 2 35 3 48 4 14 0 22 6 22 18
0 25 -19 30 -60 16z"/>
<path d="M4346 3370 c8 -43 14 -51 14 -19 0 13 -5 31 -10 39 -7 11 -8 5 -4
-20z"/>
<path d="M3691 3334 c0 -11 3 -14 6 -6 3 7 2 16 -1 19 -3 4 -6 -2 -5 -13z"/>
<path d="M240 2750 c20 -13 60 -13 60 0 0 6 -17 10 -37 10 -28 0 -34 -3 -23
-10z"/>
<path d="M4340 2480 c0 -5 5 -10 10 -10 6 0 10 5 10 10 0 6 -4 10 -10 10 -5 0
-10 -4 -10 -10z"/>
<path d="M4080 2391 c0 -5 5 -13 10 -16 6 -3 10 -2 10 4 0 5 -4 13 -10 16 -5
3 -10 2 -10 -4z"/>
<path d="M5225 2042 c-36 -22 -103 -42 -138 -42 -14 0 -28 -4 -32 -9 -3 -6
-17 -6 -35 -1 -16 5 -30 4 -32 0 -3 -10 -111 -40 -142 -40 -25 0 -89 -22 -97
-33 -11 -15 -44 -2 -41 16 2 9 -2 17 -8 17 -5 0 -10 -9 -10 -19 0 -17 -6 -19
-38 -16 -53 5 -73 -12 -63 -56 5 -19 12 -42 16 -52 6 -14 4 -16 -10 -10 -15 5
-17 2 -13 -15 4 -12 2 -22 -3 -22 -5 0 -9 7 -9 15 0 8 -5 15 -11 15 -7 0 -9
-10 -5 -25 4 -14 2 -25 -4 -25 -5 0 -10 7 -10 15 0 8 -5 15 -11 15 -20 0 -38
-27 -32 -49 4 -16 1 -21 -16 -21 -17 0 -19 4 -12 18 5 9 14 28 20 43 7 14 25
30 41 36 45 17 54 44 24 76 -29 32 -48 34 -66 9 -7 -10 -28 -25 -46 -33 -23
-10 -35 -23 -39 -42 -6 -30 -22 -45 -32 -30 -3 6 -21 14 -38 18 -41 8 -41 15
-1 38 23 13 28 21 20 29 -9 9 -17 9 -34 0 -13 -6 -42 -10 -65 -9 -24 2 -43 0
-43 -5 0 -4 4 -8 9 -8 5 0 11 -11 13 -24 5 -23 2 -24 -23 -19 -22 4 -30 1 -36
-13 -4 -10 -2 -19 5 -22 7 -2 12 -9 12 -16 0 -17 39 -34 70 -31 20 2 25 7 23
29 -1 14 -9 34 -19 43 -28 28 3 28 36 0 20 -17 47 -27 88 -32 50 -6 59 -9 55
-24 -3 -13 -12 -17 -29 -13 -14 2 -24 0 -24 -7 0 -6 5 -11 10 -11 15 0 12 -26
-4 -39 -18 -15 -50 2 -65 36 -14 31 -31 29 -31 -4 0 -25 -1 -26 -13 -8 -11 13
-16 15 -22 6 -4 -7 -2 -18 4 -24 6 -6 11 -19 11 -29 0 -23 27 -24 32 -1 3 15
48 28 48 14 0 -13 -19 -34 -40 -44 -20 -11 -27 -36 -7 -30 4 2 7 -2 7 -7 0 -6
15 -10 33 -10 22 0 28 -3 18 -9 -21 -14 22 -18 97 -9 73 9 82 13 82 39 0 12
-7 19 -20 19 -28 0 -25 13 10 38 26 19 38 22 83 16 28 -3 67 -10 84 -16 27 -8
47 -5 113 18 44 15 80 32 80 36 0 4 8 8 17 8 9 0 52 36 94 80 43 44 82 80 88
80 6 0 21 10 32 21 17 17 23 19 30 8 4 -7 11 -10 16 -6 4 5 1 12 -7 17 -12 7
-10 13 10 30 13 11 30 18 39 15 9 -2 23 0 31 5 12 8 9 10 -13 10 -36 0 -31 19
9 40 18 9 30 23 29 34 0 27 -15 29 -50 8z m-515 -162 c9 -16 8 -20 -5 -20 -8
0 -15 9 -15 20 0 11 2 20 5 20 2 0 9 -9 15 -20z m-160 -32 c0 -7 -5 -20 -10
-28 -9 -13 -12 -13 -23 0 -15 18 -57 14 -57 -6 0 -8 4 -14 10 -14 5 0 7 -7 4
-15 -7 -16 -49 -21 -58 -7 -6 10 37 52 69 70 27 15 65 15 65 0z m123 -10 c22
5 22 5 3 -16 -22 -25 -36 -20 -35 11 0 12 3 17 5 11 3 -7 15 -9 27 -6z m-439
-84 c4 -11 1 -14 -11 -12 -9 2 -18 9 -21 16 -6 18 25 15 32 -4z"/>
<path d="M4730 1950 c0 -5 7 -10 16 -10 8 0 12 5 9 10 -3 6 -10 10 -16 10 -5
0 -9 -4 -9 -10z"/>
<path d="M3830 1910 c0 -5 15 -10 34 -10 19 0 38 5 41 10 4 6 -10 10 -34 10
-23 0 -41 -4 -41 -10z"/>
<path d="M3767 1865 c23 -31 31 -31 25 0 -3 16 -11 25 -24 25 -18 0 -18 -1 -1
-25z"/>
<path d="M3741 1854 c0 -11 3 -14 6 -6 3 7 2 16 -1 19 -3 4 -6 -2 -5 -13z"/>
<path d="M4115 1860 c-3 -5 -1 -10 4 -10 6 0 11 5 11 10 0 6 -2 10 -4 10 -3 0
-8 -4 -11 -10z"/>
<path d="M4160 1837 c0 -4 -4 -6 -9 -3 -5 3 -12 -1 -15 -10 -9 -23 -7 -34 4
-34 6 0 10 6 10 14 0 9 7 12 19 9 12 -3 20 2 23 14 4 13 0 19 -13 19 -11 0
-19 -4 -19 -9z"/>
<path d="M3795 1796 c24 -19 48 -21 43 -3 -3 6 -18 13 -34 15 -28 3 -28 3 -9
-12z"/>
<path d="M4212 1667 c-9 -11 -10 -22 -2 -42 15 -40 34 -19 23 25 -7 27 -10 30
-21 17z"/>
<path d="M4165 1600 c-7 -12 2 -30 16 -30 5 0 9 9 9 20 0 21 -15 27 -25 10z"/>
<path d="M5345 1560 c-3 -5 -1 -10 4 -10 6 0 11 5 11 10 0 6 -2 10 -4 10 -3 0
-8 -4 -11 -10z"/>
<path d="M5340 1280 c0 -5 5 -10 10 -10 6 0 10 5 10 10 0 6 -4 10 -10 10 -5 0
-10 -4 -10 -10z"/>
<path d="M5382 1246 c7 -8 17 -12 22 -9 4 3 2 9 -5 14 -22 13 -31 11 -17 -5z"/>
<path d="M5486 1185 c-3 -8 -1 -15 4 -15 6 0 10 7 10 15 0 8 -2 15 -4 15 -2 0
-6 -7 -10 -15z"/>
<path d="M5575 1101 c-19 -8 -19 -8 2 -19 19 -11 22 -10 20 8 -1 11 -1 20 -2
19 0 0 -9 -4 -20 -8z"/>
<path d="M5610 1063 c1 -10 36 -53 43 -53 9 0 1 28 -12 44 -14 17 -31 21 -31
9z"/>
<path d="M5690 830 c0 -19 3 -21 12 -12 9 9 9 15 0 24 -9 9 -12 7 -12 -12z"/>
</g>
</svg>
